<?xml version="1.0" standalone="no"?>
<!DOCTYPE svg PUBLIC "-//W3C//DTD SVG 20010904//EN"
 "http://www.w3.org/TR/2001/REC-SVG-20010904/DTD/svg10.dtd">
<svg version="1.0" xmlns="http://www.w3.org/2000/svg"
 width="16.000000pt" height="16.000000pt" viewBox="0 0 16.000000 16.000000"
 preserveAspectRatio="xMidYMid meet">
<metadata>
Created by potrace 1.11, written by Peter Selinger 2001-2013
</metadata>
<g transform="translate(0.000000,16.000000) scale(0.012308,-0.012308)"
fill="#000000" stroke="none">
<path d="M620 1214 c-202 -53 -377 -235 -426 -440 -22 -94 -14 -246 16 -329
31 -82 101 -185 163 -240 29 -25 88 -64 132 -86 l80 -40 185 3 c177 3 188 4
243 30 l57 27 0 106 0 106 -46 -35 c-173 -132 -390 -124 -544 20 -152 142
-172 391 -45 564 80 109 187 163 325 163 95 1 169 -21 242 -70 24 -16 49 -32
56 -37 9 -5 12 16 12 94 l0 101 -56 26 c-31 14 -79 31 -107 39 -67 18 -216 17
-287 -2z"/>
</g>
</svg>
